<?xml version="1.0" encoding="UTF-8"?>
<svg xmlns="http://www.w3.org/2000/svg" width="1200" height="630" viewBox="0 0 1200 630">
  <rect width="1200" height="630" fill="#0D1117"/>
  <circle cx="1100" cy="-40" r="280" fill="#5B8FB9" opacity="0.08"/>
  <circle cx="80" cy="700" r="220" fill="#7FB5A0" opacity="0.06"/>
  <text x="96" y="120" font-family="system-ui,-apple-system,sans-serif" font-size="18" font-weight="700" letter-spacing="0.12em" fill="#8B949E">REACHDESK</text>
  <text x="96" y="200" font-family="system-ui,-apple-system,sans-serif" font-size="42" font-weight="700" fill="#FFFFFF">Ready to send</text>
  <rect x="96" y="230" width="64" height="4" rx="2" fill="#5B8FB9"/>
  <text x="96" y="280" font-family="system-ui,-apple-system,sans-serif" font-size="18" fill="#C9D1D9">Follow-ups that don&apos;t slip</text>
  
  <g transform="translate(720,140)">
    <rect x="0" y="0" width="360" height="340" rx="16" fill="#161B22" stroke="#30363D" stroke-width="2"/>
    <circle cx="64" cy="56" r="22" fill="#5B8FB9" opacity="0.35"/>
    <rect x="100" y="40" width="160" height="14" rx="4" fill="#8B949E" opacity="0.5"/>
    <rect x="100" y="64" width="100" height="10" rx="3" fill="#8B949E" opacity="0.3"/>
    <g opacity="0.5">
      <rect x="40" y="120" width="220" height="48" rx="12" fill="#0D1117" stroke="#30363D"/>
      <circle cx="230" cy="132" r="4" fill="#5B8FB9"/>
      <circle cx="246" cy="132" r="4" fill="#5B8FB9"/>
      <circle cx="262" cy="132" r="4" fill="#5B8FB9"/>
    </g>
    <rect x="40" y="190" width="180" height="40" rx="12" fill="#0D1117" stroke="#30363D" opacity="0.45"/>
    <rect x="40" y="250" width="140" height="36" rx="12" fill="#0D1117" stroke="#30363D" opacity="0.25"/>
    <path d="M300 300 c20-40 60-40 80 0" fill="none" stroke="#8B949E" stroke-width="3" stroke-linecap="round" opacity="0.5"/>
    <circle cx="380" cy="300" r="10" fill="none" stroke="#8B949E" stroke-width="2" opacity="0.5"/>
  </g>
</svg>