<?xml version="1.0" encoding="UTF-8"?>
<svg xmlns="http://www.w3.org/2000/svg" width="1200" height="630" viewBox="0 0 1200 630">
  <rect width="1200" height="630" fill="#0D1117"/>
  <circle cx="1100" cy="-40" r="280" fill="#5B8FB9" opacity="0.08"/>
  <circle cx="80" cy="700" r="220" fill="#7FB5A0" opacity="0.06"/>
  <text x="96" y="120" font-family="system-ui,-apple-system,sans-serif" font-size="18" font-weight="700" letter-spacing="0.12em" fill="#8B949E">REACHDESK</text>
  <text x="96" y="200" font-family="system-ui,-apple-system,sans-serif" font-size="42" font-weight="700" fill="#FFFFFF">Hot · Warm · Cold</text>
  <rect x="96" y="230" width="64" height="4" rx="2" fill="#5B8FB9"/>
  <text x="96" y="280" font-family="system-ui,-apple-system,sans-serif" font-size="18" fill="#C9D1D9">Follow-ups that don&apos;t slip</text>
  
  <g>
    
      <rect x="720" y="160" width="380" height="78" rx="12" fill="#161B22" stroke="#30363D" stroke-width="2"/>
      <rect x="720" y="160" width="10" height="78" rx="4" fill="#E05252"/>
      <text x="750" y="206" font-family="system-ui,sans-serif" font-size="20" font-weight="700" fill="#E05252">Hot</text>
      <circle cx="1020" cy="199" r="8" fill="#E05252" opacity="0.9"/>
      <circle cx="1048" cy="199" r="8" fill="#E05252" opacity="0.55"/>
    
      <rect x="720" y="260" width="380" height="78" rx="12" fill="#161B22" stroke="#30363D" stroke-width="2"/>
      <rect x="720" y="260" width="10" height="78" rx="4" fill="#E8A838"/>
      <text x="750" y="306" font-family="system-ui,sans-serif" font-size="20" font-weight="700" fill="#E8A838">Warm</text>
      <circle cx="1020" cy="299" r="8" fill="#E8A838" opacity="0.7"/>
      <circle cx="1048" cy="299" r="8" fill="#E8A838" opacity="0.45000000000000007"/>
    
      <rect x="720" y="360" width="380" height="78" rx="12" fill="#161B22" stroke="#30363D" stroke-width="2"/>
      <rect x="720" y="360" width="10" height="78" rx="4" fill="#5B8FB9"/>
      <text x="750" y="406" font-family="system-ui,sans-serif" font-size="20" font-weight="700" fill="#5B8FB9">Cold</text>
      <circle cx="1020" cy="399" r="8" fill="#5B8FB9" opacity="0.5"/>
      <circle cx="1048" cy="399" r="8" fill="#5B8FB9" opacity="0.35000000000000003"/>
    
  </g>
</svg>